<?xml version="1.0" encoding="UTF-8" standalone="no"?>
<!-- Created with Inkscape (http://www.inkscape.org/) -->

<svg
   xmlns:dc="http://purl.org/dc/elements/1.1/"
   xmlns:cc="http://creativecommons.org/ns#"
   xmlns:rdf="http://www.w3.org/1999/02/22-rdf-syntax-ns#"
   xmlns:svg="http://www.w3.org/2000/svg"
   xmlns="http://www.w3.org/2000/svg"
   xmlns:sodipodi="http://sodipodi.sourceforge.net/DTD/sodipodi-0.dtd"
   xmlns:inkscape="http://www.inkscape.org/namespaces/inkscape"
   width="1024"
   height="590"
   id="svg21523"
   version="1.1"
   inkscape:version="0.48.3.1 r9886"
   sodipodi:docname="Neues Dokument 11">
  <defs
     id="defs21525">
    <clipPath
       clipPathUnits="userSpaceOnUse"
       id="clipPath19518">
      <path
         inkscape:connector-curvature="0"
         d="m 77.693,529.606 116.079,0 0,66.642 -116.079,0 0,-66.642 z"
         id="path19520" />
    </clipPath>
  </defs>
  <sodipodi:namedview
     id="base"
     pagecolor="#ffffff"
     bordercolor="#666666"
     borderopacity="1.0"
     inkscape:pageopacity="0.0"
     inkscape:pageshadow="2"
     inkscape:zoom="0.5"
     inkscape:cx="848.55668"
     inkscape:cy="382"
     inkscape:current-layer="layer1"
     inkscape:document-units="px"
     showgrid="false"
     inkscape:window-width="1304"
     inkscape:window-height="637"
     inkscape:window-x="24"
     inkscape:window-y="0"
     inkscape:window-maximized="0" />
  <metadata
     id="metadata21528">
    <rdf:RDF>
      <cc:Work
         rdf:about="">
        <dc:format>image/svg+xml</dc:format>
        <dc:type
           rdf:resource="http://purl.org/dc/dcmitype/StillImage" />
        <dc:title></dc:title>
      </cc:Work>
    </rdf:RDF>
  </metadata>
  <g
     id="layer1"
     inkscape:label="Layer 1"
     inkscape:groupmode="layer"
     transform="translate(0,-178)">
    <g
       transform="matrix(8.6759772,0,0,-8.6027485,-666.61207,5317.7205)"
       id="g21279"
       style="fill:#1a171b;fill-opacity:1">
      <g
         id="g21079"
         style="fill:#1a171b;fill-opacity:1">
        <g
           id="g19502"
           transform="translate(89.430298,539.6994)"
           style="fill:#1a171b;fill-opacity:1">
          <path
             inkscape:connector-curvature="0"
             d="m 0,0 0,-9.952 4.172,0 0,1.113 -2.917,0 L 1.255,0 0,0 z"
             style="fill:#1a171b;fill-opacity:1;fill-rule:nonzero;stroke:none"
             id="path19504" />
        </g>
        <g
           id="g19506"
           transform="translate(98.124298,539.6994)"
           style="fill:#1a171b;fill-opacity:1">
          <path
             inkscape:connector-curvature="0"
             d="m 0,0 -2.143,-9.952 1.284,0 0.338,1.917 2.311,0 0.353,-1.917 1.297,0 L 1.24,0 0,0 z m 0.607,-1.846 0.972,-5.117 -1.889,0 0.917,5.117 z"
             style="fill:#1a171b;fill-opacity:1;fill-rule:nonzero;stroke:none"
             id="path19508" />
        </g>
        <g
           id="g19510"
           transform="translate(107.9505,539.6994)"
           style="fill:#1a171b;fill-opacity:1">
          <path
             inkscape:connector-curvature="0"
             d="M 0,0 0.169,-8.712 -1.847,0 l -1.692,0 0,-9.952 1.213,0 -0.169,8.613 1.945,-8.613 1.749,0 L 1.199,0 0,0 z"
             style="fill:#1a171b;fill-opacity:1;fill-rule:nonzero;stroke:none"
             id="path19512" />
        </g>
        <g
           id="g21044"
           style="fill:#1a171b;fill-opacity:1">
          <g
             style="fill:#1a171b;fill-opacity:1"
             id="g19514">
            <g
               style="fill:#1a171b;fill-opacity:1"
               clip-path="url(#clipPath19518)"
               id="g19516">
              <g
                 style="fill:#1a171b;fill-opacity:1"
                 transform="translate(117.8434,534.8927)"
                 id="g19522">
                <path
                   inkscape:connector-curvature="0"
                   id="path19524"
                   style="fill:#1a171b;fill-opacity:1;fill-rule:evenodd;stroke:none"
                   d="m 0,0 -2.622,0 0,-1.071 1.466,0 0,-1.016 c 0,-1.297 -0.141,-1.536 -0.367,-1.776 -0.267,-0.267 -0.634,-0.394 -1.001,-0.394 -1.043,0 -1.099,0.873 -1.113,1.283 -0.029,0.634 -0.071,1.113 -0.071,1.888 0,0.748 0.028,2.82 0.057,3.37 0.042,0.817 0.084,1.635 1.268,1.635 0.733,0 0.987,-0.353 1.072,-0.747 0.056,-0.268 0.056,-0.747 0.056,-1.41 l 1.17,0 c 0,1.607 0,1.931 -0.338,2.41 -0.31,0.452 -0.832,0.79 -2.03,0.79 -1.875,0 -2.284,-1.128 -2.397,-2.087 -0.042,-0.352 -0.098,-1.902 -0.098,-3.411 0,-2.791 0.112,-3.172 0.282,-3.594 0.408,-0.987 1.339,-1.156 1.79,-1.156 1.015,0 1.522,0.521 1.833,0.831 l 0,-0.691 1.043,0 L 0,0" />
              </g>
              <g
                 style="fill:#1a171b;fill-opacity:1"
                 transform="translate(125.0993,539.69949)"
                 id="g19526">
                <path
                   inkscape:connector-curvature="0"
                   id="path19528"
                   style="fill:#1a171b;fill-opacity:1;fill-rule:evenodd;stroke:none"
                   d="m 0,0 0,-6.597 c 0,-0.734 0,-0.818 -0.014,-1.213 -0.014,-0.465 -0.042,-1.212 -1.114,-1.212 -1.198,0 -1.198,0.902 -1.198,1.762 l 0,7.26 -1.255,0 0,-6.795 c 0,-1.494 0.029,-1.776 0.226,-2.213 0.352,-0.761 1.128,-1.085 2.199,-1.085 0.522,0 1.72,0.098 2.171,1.156 0.226,0.507 0.24,1.001 0.24,2.227 L 1.255,0 0,0" />
              </g>
              <g
                 style="fill:#1a171b;fill-opacity:1"
                 transform="translate(130.9743,532.73579)"
                 id="g19530">
                <path
                   inkscape:connector-curvature="0"
                   id="path19532"
                   style="fill:#1a171b;fill-opacity:1;fill-rule:evenodd;stroke:none"
                   d="M 0,0 0.916,5.117 1.889,0 0,0 z m 1.551,6.964 -1.241,0 -2.143,-9.953 1.283,0 0.339,1.918 2.311,0 0.353,-1.918 1.297,0 -2.199,9.953 z" />
              </g>
              <g
                 style="fill:#1a171b;fill-opacity:1"
                 transform="translate(142.42171,534.8927)"
                 id="g19534">
                <path
                   inkscape:connector-curvature="0"
                   id="path19536"
                   style="fill:#1a171b;fill-opacity:1;fill-rule:evenodd;stroke:none"
                   d="m 0,0 -2.622,0 0,-1.071 1.466,0 0,-1.016 c 0,-1.297 -0.141,-1.536 -0.366,-1.776 -0.268,-0.267 -0.635,-0.394 -1.001,-0.394 -1.044,0 -1.1,0.873 -1.114,1.283 -0.028,0.634 -0.071,1.113 -0.071,1.888 0,0.748 0.029,2.82 0.057,3.37 0.042,0.817 0.084,1.635 1.269,1.635 0.733,0 0.986,-0.353 1.071,-0.747 0.056,-0.268 0.056,-0.747 0.056,-1.41 l 1.171,0 c 0,1.607 0,1.931 -0.339,2.41 -0.31,0.452 -0.832,0.79 -2.03,0.79 -1.875,0 -2.284,-1.128 -2.397,-2.087 -0.042,-0.352 -0.098,-1.902 -0.098,-3.411 0,-2.791 0.113,-3.172 0.282,-3.594 0.409,-0.987 1.339,-1.156 1.79,-1.156 1.015,0 1.523,0.521 1.833,0.831 l 0,-0.691 1.043,0 L 0,0" />
              </g>
              <g
                 style="fill:#1a171b;fill-opacity:1"
                 transform="translate(150.62241,530.8609)"
                 id="g19538">
                <path
                   inkscape:connector-curvature="0"
                   id="path19540"
                   style="fill:#1a171b;fill-opacity:1;fill-rule:evenodd;stroke:none"
                   d="m 0,0 -3.242,0 0,3.637 2.749,0 0,1.128 -2.749,0 0,2.96 3.129,0 0,1.114 -4.37,0 0,-9.953 4.483,0 L 0,0 z" />
              </g>
              <g
                 style="fill:#1a171b;fill-opacity:1"
                 transform="translate(161.1638,538.58611)"
                 id="g19542">
                <path
                   inkscape:connector-curvature="0"
                   id="path19544"
                   style="fill:#1a171b;fill-opacity:1;fill-rule:evenodd;stroke:none"
                   d="m 0,0 1.889,0 0,1.113 -5.005,0 0,-1.113 1.89,0 0,-8.839 1.226,0 L 0,0 z" />
              </g>
              <g
                 style="fill:#1a171b;fill-opacity:1"
                 transform="translate(170.21471,530.8609)"
                 id="g19546">
                <path
                   inkscape:connector-curvature="0"
                   id="path19548"
                   style="fill:#1a171b;fill-opacity:1;fill-rule:evenodd;stroke:none"
                   d="m 0,0 -3.242,0 0,3.637 2.748,0 0,1.128 -2.748,0 0,2.96 3.129,0 0,1.114 -4.37,0 0,-9.953 4.483,0 L 0,0 z" />
              </g>
              <g
                 style="fill:#1a171b;fill-opacity:1"
                 transform="translate(173.1192,532.0873)"
                 id="g19550">
                <path
                   inkscape:connector-curvature="0"
                   id="path19552"
                   style="fill:#1a171b;fill-opacity:1;fill-rule:evenodd;stroke:none"
                   d="m 0,0 c 0,-0.747 0.141,-1.495 0.775,-1.988 0.197,-0.169 0.705,-0.493 1.664,-0.493 0.747,0 2.41,0.268 2.41,2.382 0,1.142 -0.366,1.649 -1.184,2.523 L 2.411,3.735 C 1.706,4.483 1.438,4.779 1.438,5.526 c 0,0.282 0,1.184 1.043,1.184 C 3.355,6.71 3.482,6.09 3.51,5.907 3.538,5.723 3.538,5.625 3.567,4.68 l 1.085,0 c 0,1.466 0,1.805 -0.282,2.27 C 3.919,7.683 3.059,7.767 2.552,7.767 0.24,7.767 0.24,5.991 0.24,5.441 0.24,4.539 0.437,3.933 1.381,2.96 L 2.735,1.579 c 0.563,-0.578 0.916,-0.973 0.916,-1.763 0,-1.085 -0.86,-1.24 -1.255,-1.24 -1.099,0 -1.184,0.931 -1.198,1.184 C 1.184,-0.056 1.184,0.056 1.184,1.1 L 0,1.1 0,0" />
              </g>
              <g
                 style="fill:#1a171b;fill-opacity:1"
                 transform="translate(183.4106,538.58611)"
                 id="g19554">
                <path
                   inkscape:connector-curvature="0"
                   id="path19556"
                   style="fill:#1a171b;fill-opacity:1;fill-rule:evenodd;stroke:none"
                   d="m 0,0 1.889,0 0,1.113 -5.004,0 0,-1.113 1.889,0 0,-8.839 1.226,0 L 0,0 z" />
              </g>
              <g
                 style="fill:#1a171b;fill-opacity:1"
                 transform="translate(187.65469,532.0873)"
                 id="g19558">
                <path
                   inkscape:connector-curvature="0"
                   id="path19560"
                   style="fill:#1a171b;fill-opacity:1;fill-rule:evenodd;stroke:none"
                   d="m 0,0 c 0,-0.747 0.141,-1.495 0.775,-1.988 0.198,-0.169 0.705,-0.493 1.664,-0.493 0.747,0 2.41,0.268 2.41,2.382 0,1.142 -0.366,1.649 -1.184,2.523 L 2.411,3.735 C 1.706,4.483 1.438,4.779 1.438,5.526 c 0,0.282 0,1.184 1.043,1.184 C 3.355,6.71 3.482,6.09 3.51,5.907 3.538,5.723 3.538,5.625 3.567,4.68 l 1.085,0 c 0,1.466 0,1.805 -0.282,2.27 C 3.919,7.683 3.059,7.767 2.552,7.767 0.24,7.767 0.24,5.991 0.24,5.441 0.24,4.539 0.437,3.933 1.382,2.96 L 2.735,1.579 c 0.564,-0.578 0.916,-0.973 0.916,-1.763 0,-1.085 -0.859,-1.24 -1.254,-1.24 -1.1,0 -1.185,0.931 -1.199,1.184 C 1.184,-0.056 1.184,0.056 1.184,1.1 L 0,1.1 0,0" />
              </g>
              <g
                 style="fill:#1a171b;fill-opacity:1"
                 transform="translate(89.469299,560.5825)"
                 id="g19562">
                <path
                   inkscape:connector-curvature="0"
                   id="path19564"
                   style="fill:#1a171b;fill-opacity:1;fill-rule:evenodd;stroke:none"
                   d="m 0,0 c 0,-7.19 4.088,-11.771 11.489,-11.771 2.819,0 5.004,0.282 6.978,0.846 l -0.282,7.471 c -0.987,-0.634 -2.608,-0.987 -4.3,-0.987 -3.594,0 -4.441,2.89 -4.441,5.992 l 0,16.917 0,6.907 0,10.291 L 0,32.635 0,25.375 0,18.468 0,0" />
              </g>
              <g
                 style="fill:#1a171b;fill-opacity:1"
                 transform="translate(143.4299,559.3842)"
                 id="g19566">
                <path
                   inkscape:connector-curvature="0"
                   id="path19568"
                   style="fill:#1a171b;fill-opacity:1;fill-rule:evenodd;stroke:none"
                   d="m 0,0 c -3.523,-1.973 -7.471,-3.665 -12.052,-3.665 -5.851,0 -9.939,3.312 -10.362,9.163 l 25.093,0 c 0,12.687 -3.806,21.921 -17.27,21.921 -11.277,0 -16.846,-8.669 -16.846,-19.172 0,-11.912 6.978,-18.819 18.961,-18.819 5.075,0 9.022,0.986 12.476,2.89 L 0,0 z m -22.414,11.983 c 0.423,4.863 3.101,8.529 8.388,8.529 5.286,0 7.401,-3.948 7.682,-8.529 l -16.07,0" />
              </g>
              <g
                 style="fill:#1a171b;fill-opacity:1"
                 transform="translate(151.2739,549.6575)"
                 id="g19570">
                <path
                   inkscape:connector-curvature="0"
                   id="path19572"
                   style="fill:#1a171b;fill-opacity:1;fill-rule:evenodd;stroke:none"
                   d="m 0,0 9.444,0 10e-4,43.642 -9.444,0 L 0,0 z" />
              </g>
              <g
                 style="fill:#1a171b;fill-opacity:1"
                 transform="translate(193.1371,585.6046)"
                 id="g19574">
                <path
                   inkscape:connector-curvature="0"
                   id="path19576"
                   style="fill:#1a171b;fill-opacity:1;fill-rule:evenodd;stroke:none"
                   d="m 0,0 c -2.607,0.776 -5.356,1.198 -9.162,1.198 -11.349,0 -17.552,-8.317 -17.552,-18.819 0,-11.067 5.992,-19.172 17.903,-19.172 3.878,0 6.697,0.352 9.446,1.199 l -0.423,7.823 c -1.621,-0.705 -4.582,-1.692 -7.26,-1.692 -6.626,0 -9.798,5.145 -9.798,11.842 0,6.837 3.737,11.49 9.586,11.49 2.89,0 4.723,-0.565 6.415,-1.34 L 0,0" />
              </g>
              <g
                 style="fill:#1a171b;fill-opacity:1"
                 transform="translate(77.692902,582.6684)"
                 id="g19578">
                <path
                   inkscape:connector-curvature="0"
                   id="path19580"
                   style="fill:#1a171b;fill-opacity:1;fill-rule:nonzero;stroke:none"
                   d="M 0,0 C 0,2.756 2.234,4.991 4.99,4.991 7.747,4.991 9.981,2.756 9.981,0 9.981,-2.756 7.747,-4.99 4.99,-4.99 2.234,-4.99 0,-2.756 0,0" />
              </g>
              <path
                 inkscape:connector-curvature="0"
                 id="path19582"
                 style="fill:#1a171b;fill-opacity:1;fill-rule:evenodd;stroke:none"
                 d="m 110.9,579.439 -10.084,0 0,6.148 10.084,0 0,-6.148 z" />
            </g>
          </g>
        </g>
      </g>
    </g>
  </g>
</svg>
